<svg width="20" height="20" viewBox="0 0 20 20" fill="none" xmlns="http://www.w3.org/2000/svg">
<path d="M10 18.5714C14.7339 18.5714 18.5714 14.7339 18.5714 10C18.5714 5.26615 14.7339 1.42859 10 1.42859C5.26615 1.42859 1.42859 5.26615 1.42859 10C1.42859 14.7339 5.26615 18.5714 10 18.5714Z" fill="url(#paint0_linear_7809_39813)"/>
<path fill-rule="evenodd" clip-rule="evenodd" d="M10.2229 7.91725C10.2545 7.91087 10.2858 7.90315 10.3168 7.89409C10.3478 7.88503 10.3783 7.87466 10.4084 7.86297C10.4385 7.85129 10.4681 7.83834 10.497 7.82413C10.526 7.80991 10.5544 7.79448 10.582 7.77783C10.6097 7.76118 10.6366 7.74338 10.6627 7.72443C10.6889 7.70547 10.7141 7.68543 10.7385 7.66431C10.7629 7.64318 10.7864 7.62105 10.8089 7.59792C10.8314 7.57478 10.8529 7.55072 10.8734 7.52574C10.8938 7.50076 10.9132 7.47495 10.9314 7.44831C10.9496 7.42167 10.9667 7.3943 10.9826 7.3662C10.9985 7.33809 11.0131 7.30936 11.0265 7.28C11.04 7.25064 11.0521 7.22075 11.063 7.19035C11.0738 7.15995 11.0834 7.12914 11.0916 7.09792C11.0998 7.0667 11.1066 7.03518 11.1121 7.00337C11.1176 6.97156 11.1218 6.93958 11.1246 6.90741C11.1273 6.87525 11.1287 6.84302 11.1287 6.81074C11.1287 6.77377 11.1269 6.73689 11.1233 6.7001C11.1197 6.66332 11.1142 6.62679 11.107 6.59053C11.0998 6.55428 11.0908 6.51846 11.0801 6.48309C11.0694 6.44771 11.0569 6.41295 11.0428 6.37879C11.0287 6.34464 11.0129 6.31126 10.9954 6.27866C10.978 6.24606 10.959 6.21439 10.9385 6.18365C10.918 6.15291 10.896 6.12325 10.8725 6.09468C10.8491 6.0661 10.8243 6.03874 10.7981 6.0126C10.772 5.98647 10.7446 5.96167 10.716 5.93822C10.6874 5.91477 10.6578 5.89277 10.6271 5.87223C10.5963 5.85169 10.5647 5.83271 10.5321 5.81529C10.4994 5.79786 10.4661 5.78207 10.4319 5.76793C10.3978 5.75378 10.363 5.74134 10.3276 5.73061C10.2923 5.71988 10.2564 5.71091 10.2202 5.7037C10.1839 5.69648 10.1474 5.69107 10.1106 5.68744C10.0738 5.68382 10.0369 5.68201 9.99998 5.68201C9.963 5.68201 9.92613 5.68382 9.88935 5.68744C9.85255 5.69107 9.81602 5.69648 9.77975 5.7037C9.74351 5.71091 9.7077 5.71988 9.67232 5.73061C9.63695 5.74134 9.60218 5.75378 9.56802 5.76793C9.53386 5.78207 9.50049 5.79786 9.4679 5.81529C9.43529 5.83271 9.40362 5.85169 9.37289 5.87223C9.34214 5.89277 9.31248 5.91477 9.2839 5.93822C9.25533 5.96167 9.22798 5.98647 9.20185 6.0126C9.17571 6.03874 9.15091 6.0661 9.12745 6.09468C9.10401 6.12325 9.08201 6.15291 9.06147 6.18365C9.04092 6.21439 9.02193 6.24606 9.00451 6.27866C8.98709 6.31126 8.97131 6.34464 8.95716 6.37879C8.94301 6.41295 8.93058 6.44771 8.91986 6.48309C8.90912 6.51846 8.90014 6.55428 8.89293 6.59053C8.88572 6.62679 8.8803 6.66332 8.87666 6.7001C8.87306 6.73689 8.87126 6.77377 8.87126 6.81074C8.87126 6.84303 8.87264 6.87526 8.87541 6.90744C8.87818 6.93961 8.88232 6.9716 8.88783 7.00342C8.89334 7.03524 8.90019 7.06676 8.9084 7.09799C8.91663 7.12922 8.92618 7.16004 8.93705 7.19045C8.94789 7.22086 8.96003 7.25075 8.97346 7.28011C8.9869 7.30948 9.00157 7.33822 9.01747 7.36633C9.03334 7.39443 9.05041 7.42181 9.06867 7.44846C9.0869 7.4751 9.10625 7.50091 9.12672 7.5259C9.14717 7.55088 9.16865 7.57494 9.19118 7.59808C9.21371 7.62122 9.23719 7.64335 9.26162 7.66447C9.28605 7.68559 9.31133 7.70563 9.33747 7.72459C9.3636 7.74354 9.39051 7.76134 9.41819 7.77798C9.44587 7.79463 9.4742 7.81006 9.50318 7.82427C9.53218 7.83848 9.56173 7.85143 9.59183 7.8631C9.62195 7.87478 9.6525 7.88514 9.68349 7.8942C9.7145 7.90325 9.74582 7.91096 9.77747 7.91733L8.30709 10.368L6.98135 9.70509C7.04544 9.6113 7.09426 9.51012 7.12781 9.40156C7.16135 9.29301 7.17812 9.18193 7.17812 9.06831C7.17812 9.03135 7.17631 8.99447 7.17268 8.95768C7.16906 8.92089 7.16364 8.88436 7.15643 8.84811C7.14922 8.81185 7.14025 8.77604 7.12952 8.74066C7.11879 8.70529 7.10635 8.67052 7.0922 8.63637C7.07805 8.60221 7.06227 8.56884 7.04484 8.53623C7.02741 8.50363 7.00843 8.47196 6.98789 8.44122C6.96736 8.41049 6.94536 8.38083 6.92191 8.35225C6.89846 8.32368 6.87366 8.29632 6.84752 8.27018C6.82138 8.24404 6.79402 8.21924 6.76545 8.19579C6.73687 8.17234 6.70721 8.15034 6.67648 8.12981C6.64574 8.10927 6.61407 8.09029 6.58147 8.07286C6.54887 8.05543 6.51549 8.03965 6.48134 8.0255C6.44718 8.01135 6.41242 7.99892 6.37704 7.98818C6.34167 7.97745 6.30585 7.96848 6.26959 7.96127C6.23333 7.95406 6.19681 7.94864 6.16002 7.94502C6.12323 7.94139 6.08635 7.93958 6.04939 7.93958C6.01242 7.93958 5.97554 7.94139 5.93875 7.94502C5.90196 7.94864 5.86544 7.95406 5.82918 7.96127C5.79293 7.96848 5.75711 7.97745 5.72173 7.98818C5.68636 7.99892 5.65159 8.01135 5.61744 8.0255C5.58329 8.03965 5.54991 8.05543 5.51731 8.07286C5.48471 8.09029 5.45304 8.10927 5.4223 8.12981C5.39156 8.15034 5.3619 8.17234 5.33333 8.19579C5.30475 8.21924 5.27739 8.24404 5.25125 8.27018C5.22511 8.29632 5.20032 8.32368 5.17686 8.35225C5.15341 8.38083 5.13142 8.41049 5.11088 8.44122C5.09034 8.47196 5.07136 8.50363 5.05393 8.53623C5.03651 8.56884 5.02072 8.60221 5.00657 8.63637C4.99243 8.67052 4.97999 8.70529 4.96926 8.74066C4.95853 8.77604 4.94955 8.81185 4.94234 8.84811C4.93513 8.88436 4.92971 8.92089 4.92609 8.95768C4.92247 8.99447 4.92065 9.03135 4.92065 9.06831C4.92065 9.10528 4.92247 9.14216 4.92609 9.17895C4.92971 9.21574 4.93513 9.25226 4.94234 9.28852C4.94955 9.32478 4.95853 9.36059 4.96926 9.39597C4.97999 9.43134 4.99243 9.4661 5.00657 9.50025C5.02072 9.53441 5.03651 9.56779 5.05393 9.6004C5.07136 9.63301 5.09034 9.66468 5.11088 9.69541C5.13142 9.72614 5.15341 9.75579 5.17686 9.78436C5.20032 9.81296 5.22511 9.84032 5.25125 9.86646C5.27739 9.89259 5.30475 9.91738 5.33333 9.94082C5.3619 9.96429 5.39156 9.98629 5.4223 10.0068C5.45304 10.0274 5.48471 10.0463 5.51731 10.0638C5.54991 10.0812 5.58329 10.097 5.61744 10.1111C5.65159 10.1253 5.68636 10.1377 5.72173 10.1484C5.75711 10.1592 5.79293 10.1682 5.82918 10.1754C5.86544 10.1826 5.90196 10.188 5.93875 10.1916C5.97554 10.1952 6.01242 10.197 6.04939 10.197C6.11958 10.197 6.18916 10.1906 6.25814 10.1776L6.98194 13.4347C7.09671 13.9511 7.55476 14.3185 8.0838 14.3185H11.9166C12.4456 14.3185 12.9037 13.9511 13.0185 13.4347L13.7422 10.1776C13.8111 10.1906 13.8806 10.197 13.9507 10.197C13.9876 10.197 14.0245 10.1952 14.0613 10.1916C14.0981 10.188 14.1346 10.1826 14.1709 10.1754C14.2071 10.1682 14.2429 10.1592 14.2783 10.1484C14.3137 10.1377 14.3485 10.1253 14.3826 10.1111C14.4168 10.097 14.4502 10.0812 14.4827 10.0638C14.5153 10.0463 14.547 10.0274 14.5777 10.0068C14.6085 9.98629 14.6382 9.96429 14.6667 9.94082C14.6953 9.91738 14.7227 9.89259 14.7488 9.86646C14.775 9.84032 14.7998 9.81296 14.8232 9.78436C14.8466 9.75579 14.8686 9.72614 14.8892 9.69541C14.9097 9.66468 14.9287 9.63301 14.9461 9.6004C14.9635 9.56779 14.9793 9.53441 14.9935 9.50025C15.0076 9.4661 15.0201 9.43134 15.0308 9.39597C15.0415 9.36059 15.0505 9.32478 15.0577 9.28852C15.0649 9.25226 15.0703 9.21574 15.074 9.17895C15.0776 9.14216 15.0794 9.10528 15.0794 9.06831C15.0794 9.03135 15.0776 8.99447 15.074 8.95768C15.0703 8.92089 15.0649 8.88436 15.0577 8.84811C15.0505 8.81185 15.0415 8.77604 15.0308 8.74066C15.0201 8.70529 15.0076 8.67052 14.9935 8.63637C14.9793 8.60221 14.9635 8.56884 14.9461 8.53623C14.9287 8.50363 14.9097 8.47196 14.8892 8.44122C14.8686 8.41049 14.8466 8.38083 14.8232 8.35225C14.7998 8.32368 14.775 8.29632 14.7488 8.27018C14.7227 8.24404 14.6953 8.21924 14.6667 8.19579C14.6382 8.17234 14.6085 8.15034 14.5777 8.12981C14.547 8.10927 14.5153 8.09029 14.4827 8.07286C14.4502 8.05543 14.4168 8.03965 14.3826 8.0255C14.3485 8.01135 14.3137 7.99892 14.2783 7.98818C14.2429 7.97745 14.2071 7.96848 14.1709 7.96127C14.1346 7.95406 14.0981 7.94864 14.0613 7.94502C14.0245 7.94139 13.9876 7.93958 13.9507 7.93958C13.9137 7.93958 13.8768 7.94139 13.84 7.94502C13.8033 7.94864 13.7667 7.95406 13.7305 7.96127C13.6942 7.96848 13.6584 7.97745 13.623 7.98818C13.5876 7.99892 13.5529 8.01135 13.5187 8.0255C13.4846 8.03965 13.4512 8.05543 13.4186 8.07286C13.386 8.09029 13.3543 8.10927 13.3236 8.12981C13.2928 8.15034 13.2632 8.17234 13.2346 8.19579C13.206 8.21924 13.1787 8.24404 13.1525 8.27018C13.1264 8.29632 13.1016 8.32368 13.0782 8.35225C13.0547 8.38083 13.0327 8.41049 13.0122 8.44122C12.9916 8.47196 12.9726 8.50363 12.9552 8.53623C12.9378 8.56884 12.922 8.60221 12.9079 8.63637C12.8937 8.67052 12.8813 8.70529 12.8705 8.74066C12.8598 8.77604 12.8508 8.81185 12.8436 8.84811C12.8364 8.88436 12.831 8.92089 12.8274 8.95768C12.8237 8.99447 12.8219 9.03135 12.8219 9.06831C12.8219 9.18195 12.8387 9.29306 12.8723 9.40163C12.9058 9.51019 12.9547 9.6114 13.0188 9.70524L11.6933 10.368L10.2229 7.91725Z" fill="white"/>
<defs>
<linearGradient id="paint0_linear_7809_39813" x1="1.42859" y1="1.42859" x2="18.5714" y2="18.5714" gradientUnits="userSpaceOnUse">
<stop stop-color="#FF7259"/>
<stop offset="1" stop-color="#EB445A"/>
</linearGradient>
</defs>
</svg>
