<svg width="20" height="20" viewBox="0 0 20 20" fill="none" xmlns="http://www.w3.org/2000/svg">
<path d="M9.99999 18.5725C14.7345 18.5725 18.5725 14.7345 18.5725 9.99999C18.5725 5.26553 14.7345 1.42749 9.99999 1.42749C5.26553 1.42749 1.42749 5.26553 1.42749 9.99999C1.42749 14.7345 5.26553 18.5725 9.99999 18.5725Z" fill="url(#paint0_linear_7913_371806)"/>
<path fill-rule="evenodd" clip-rule="evenodd" d="M10.2228 7.91667C10.2545 7.9103 10.2858 7.90258 10.3168 7.89352C10.3478 7.88446 10.3783 7.87409 10.4085 7.8624C10.4386 7.85072 10.4681 7.83777 10.4971 7.82355C10.5261 7.80933 10.5544 7.7939 10.582 7.77725C10.6097 7.7606 10.6366 7.7428 10.6628 7.72384C10.6889 7.70488 10.7142 7.68484 10.7386 7.66371C10.763 7.64259 10.7865 7.62046 10.809 7.59731C10.8315 7.57417 10.853 7.55011 10.8735 7.52513C10.8939 7.50015 10.9133 7.47433 10.9315 7.44769C10.9497 7.42105 10.9668 7.39367 10.9827 7.36556C10.9986 7.33746 11.0132 7.30872 11.0267 7.27935C11.0401 7.24999 11.0522 7.2201 11.0631 7.18969C11.0739 7.15929 11.0835 7.12847 11.0917 7.09724C11.0999 7.06602 11.1068 7.0345 11.1123 7.00268C11.1178 6.97087 11.1219 6.93888 11.1247 6.90671C11.1275 6.87454 11.1289 6.84231 11.1289 6.81002C11.1289 6.77305 11.127 6.73617 11.1234 6.69937C11.1198 6.66258 11.1143 6.62605 11.1071 6.58979C11.0999 6.55353 11.091 6.51771 11.0802 6.48233C11.0695 6.44695 11.057 6.41218 11.0429 6.37802C11.0287 6.34387 11.013 6.31048 10.9955 6.27788C10.9781 6.24527 10.9591 6.2136 10.9386 6.18286C10.9181 6.15211 10.8961 6.12245 10.8726 6.09387C10.8491 6.06529 10.8244 6.03793 10.7982 6.01179C10.7721 5.98565 10.7447 5.96085 10.7161 5.93739C10.6875 5.91394 10.6579 5.89194 10.6272 5.8714C10.5964 5.85086 10.5647 5.83188 10.5321 5.81445C10.4995 5.79702 10.4661 5.78123 10.432 5.76708C10.3978 5.75293 10.363 5.74049 10.3276 5.72976C10.2923 5.71903 10.2565 5.71006 10.2202 5.70284C10.1839 5.69563 10.1474 5.69021 10.1106 5.68659C10.0738 5.68296 10.0369 5.68115 9.99999 5.68115C9.963 5.68115 9.92611 5.68296 9.88931 5.68659C9.85253 5.69021 9.816 5.69563 9.77973 5.70284C9.74349 5.71006 9.70767 5.71903 9.67229 5.72976C9.63691 5.74049 9.60213 5.75293 9.56797 5.76708C9.53381 5.78123 9.50042 5.79702 9.46781 5.81445C9.43522 5.83188 9.40354 5.85086 9.37279 5.8714C9.34205 5.89194 9.3124 5.91394 9.28382 5.93739C9.25525 5.96085 9.22789 5.98565 9.20176 6.01179C9.17559 6.03793 9.15079 6.06529 9.12735 6.09387C9.10388 6.12245 9.08188 6.15211 9.06136 6.18286C9.04081 6.2136 9.02182 6.24527 9.0044 6.27788C8.98697 6.31048 8.97119 6.34387 8.95704 6.37802C8.94289 6.41218 8.93045 6.44695 8.9197 6.48233C8.90898 6.51771 8.90002 6.55353 8.8928 6.58979C8.88559 6.62605 8.88017 6.66258 8.87653 6.69937C8.8729 6.73617 8.87108 6.77305 8.87108 6.81002C8.87108 6.84232 8.87247 6.87456 8.87524 6.90673C8.87801 6.93891 8.88215 6.97091 8.88766 7.00273C8.89317 7.03456 8.90004 7.06608 8.90827 7.09732C8.9165 7.12855 8.92604 7.15937 8.93688 7.18979C8.94776 7.2202 8.95991 7.2501 8.97335 7.27947C8.98678 7.30884 9.00145 7.33758 9.01735 7.36569C9.03323 7.3938 9.05029 7.42118 9.06856 7.44783C9.08679 7.47448 9.10615 7.5003 9.12662 7.52529C9.14709 7.55027 9.16858 7.57434 9.19109 7.59748C9.21362 7.62062 9.2371 7.64275 9.26153 7.66388C9.28597 7.685 9.31125 7.70504 9.33739 7.724C9.36355 7.74296 9.39048 7.76076 9.41816 7.7774C9.44582 7.79405 9.47416 7.80948 9.50316 7.82369C9.53217 7.83791 9.56172 7.85085 9.59182 7.86253C9.62195 7.8742 9.6525 7.88457 9.68349 7.89362C9.7145 7.90268 9.74584 7.91039 9.77748 7.91675L8.30688 10.3678L6.98087 9.70477C7.04501 9.61095 7.09386 9.50973 7.12743 9.40112C7.161 9.29253 7.17778 9.18141 7.17778 9.06774C7.17778 9.03077 7.17597 8.99389 7.17235 8.95709C7.16872 8.9203 7.16331 8.88377 7.15609 8.84751C7.14888 8.81125 7.13991 8.77543 7.12917 8.74005C7.11844 8.70467 7.106 8.6699 7.09185 8.63574C7.0777 8.60159 7.06192 8.5682 7.04449 8.5356C7.02706 8.50299 7.00807 8.47132 6.98753 8.44058C6.96699 8.40983 6.945 8.38017 6.92154 8.35159C6.89809 8.32301 6.87329 8.29565 6.84714 8.26951C6.821 8.24337 6.79364 8.21857 6.76506 8.19511C6.73648 8.17166 6.70682 8.14966 6.67608 8.12912C6.64534 8.10858 6.61367 8.0896 6.58106 8.07217C6.54845 8.05474 6.51507 8.03895 6.48092 8.0248C6.44676 8.01065 6.41199 7.99821 6.37661 7.98748C6.34123 7.97675 6.30541 7.96778 6.26914 7.96056C6.23288 7.95335 6.19636 7.94793 6.15956 7.94431C6.12277 7.94068 6.08588 7.93887 6.04892 7.93887C6.01194 7.93887 5.97506 7.94068 5.93827 7.94431C5.90147 7.94793 5.86494 7.95335 5.82868 7.96056C5.79242 7.96778 5.7566 7.97675 5.72122 7.98748C5.68584 7.99821 5.65107 8.01065 5.61691 8.0248C5.58276 8.03895 5.54938 8.05474 5.51677 8.07217C5.48416 8.0896 5.45249 8.10858 5.42175 8.12912C5.39101 8.14966 5.36135 8.17166 5.33277 8.19511C5.30419 8.21857 5.27683 8.24337 5.25068 8.26951C5.22454 8.29565 5.19974 8.32301 5.17629 8.35159C5.15283 8.38017 5.13083 8.40983 5.11029 8.44058C5.08975 8.47132 5.07077 8.50299 5.05334 8.5356C5.03591 8.5682 5.02012 8.60159 5.00597 8.63574C4.99183 8.6699 4.97939 8.70467 4.96865 8.74005C4.95792 8.77543 4.94895 8.81125 4.94173 8.84751C4.93452 8.88377 4.9291 8.9203 4.92548 8.95709C4.92186 8.99389 4.92004 9.03077 4.92004 9.06774C4.92004 9.10472 4.92186 9.1416 4.92548 9.17839C4.9291 9.21518 4.93452 9.25171 4.94173 9.28797C4.94895 9.32424 4.95792 9.36006 4.96865 9.39544C4.97939 9.43082 4.99183 9.46559 5.00597 9.49976C5.02012 9.5339 5.03591 9.56727 5.05334 9.59989C5.07077 9.6325 5.08975 9.66417 5.11029 9.69491C5.13083 9.72564 5.15283 9.75531 5.17629 9.78391C5.19974 9.81248 5.22454 9.83984 5.25068 9.86598C5.27683 9.89211 5.30419 9.91691 5.33277 9.94038C5.36135 9.96383 5.39101 9.98583 5.42175 10.0064C5.45249 10.0269 5.48416 10.0459 5.51677 10.0633C5.54938 10.0808 5.58276 10.0965 5.61691 10.1107C5.65107 10.1248 5.68584 10.1373 5.72122 10.148C5.7566 10.1587 5.79242 10.1677 5.82868 10.1749C5.86494 10.1821 5.90147 10.1876 5.93827 10.1912C5.97506 10.1948 6.01194 10.1966 6.04892 10.1966C6.11909 10.1966 6.18867 10.1901 6.25763 10.1771L6.98157 13.4348C7.09635 13.9514 7.55446 14.3188 8.08356 14.3188H11.9168C12.4459 14.3188 12.904 13.9514 13.0188 13.4348L13.7427 10.1772C13.8116 10.1901 13.8811 10.1966 13.9512 10.1966C13.9881 10.1966 14.025 10.1948 14.0618 10.1912C14.0986 10.1876 14.1351 10.1821 14.1714 10.1749C14.2077 10.1677 14.2435 10.1587 14.2788 10.148C14.3142 10.1373 14.349 10.1248 14.3832 10.1107C14.4173 10.0965 14.4507 10.0808 14.4833 10.0633C14.5159 10.0459 14.5476 10.0269 14.5783 10.0064C14.6091 9.98583 14.6387 9.96383 14.6673 9.94038C14.6959 9.91691 14.7233 9.89211 14.7494 9.86598C14.7755 9.83984 14.8003 9.81248 14.8238 9.78391C14.8473 9.75531 14.8693 9.72564 14.8898 9.69491C14.9103 9.66417 14.9293 9.6325 14.9467 9.59989C14.9642 9.56727 14.9799 9.5339 14.9941 9.49976C15.0082 9.46559 15.0207 9.43082 15.0314 9.39544C15.0421 9.36006 15.0511 9.32424 15.0583 9.28797C15.0655 9.25171 15.071 9.21518 15.0746 9.17839C15.0782 9.1416 15.08 9.10472 15.08 9.06774C15.08 9.03077 15.0782 8.99389 15.0746 8.95709C15.071 8.9203 15.0655 8.88377 15.0583 8.84751C15.0511 8.81125 15.0421 8.77543 15.0314 8.74005C15.0207 8.70467 15.0082 8.6699 14.9941 8.63574C14.9799 8.60159 14.9642 8.5682 14.9467 8.5356C14.9293 8.50299 14.9103 8.47132 14.8898 8.44058C14.8693 8.40983 14.8473 8.38017 14.8238 8.35159C14.8003 8.32301 14.7755 8.29565 14.7494 8.26951C14.7233 8.24337 14.6959 8.21857 14.6673 8.19511C14.6387 8.17166 14.6091 8.14966 14.5783 8.12912C14.5476 8.10858 14.5159 8.0896 14.4833 8.07217C14.4507 8.05474 14.4173 8.03895 14.3832 8.0248C14.349 8.01065 14.3142 7.99821 14.2788 7.98748C14.2435 7.97675 14.2077 7.96778 14.1714 7.96056C14.1351 7.95335 14.0986 7.94793 14.0618 7.94431C14.025 7.94068 13.9881 7.93887 13.9512 7.93887C13.9142 7.93887 13.8773 7.94068 13.8405 7.94431C13.8037 7.94793 13.7672 7.95335 13.7309 7.96056C13.6947 7.96778 13.6589 7.97675 13.6235 7.98748C13.5881 7.99821 13.5533 8.01065 13.5192 8.0248C13.485 8.03895 13.4516 8.05474 13.419 8.07217C13.3864 8.0896 13.3547 8.10858 13.324 8.12912C13.2932 8.14966 13.2636 8.17166 13.235 8.19511C13.2064 8.21857 13.1791 8.24337 13.1529 8.26951C13.1268 8.29565 13.102 8.32301 13.0785 8.35159C13.0551 8.38017 13.0331 8.40983 13.0126 8.44058C12.992 8.47132 12.973 8.50299 12.9556 8.5356C12.9382 8.5682 12.9224 8.60159 12.9082 8.63574C12.8941 8.6699 12.8816 8.70467 12.8709 8.74005C12.8602 8.77543 12.8512 8.81125 12.844 8.84751C12.8368 8.88377 12.8314 8.9203 12.8277 8.95709C12.8241 8.99389 12.8223 9.03077 12.8223 9.06774C12.8223 9.18143 12.8391 9.29258 12.8727 9.40119C12.9063 9.5098 12.9551 9.61104 13.0193 9.70489L11.6935 10.3678L10.2228 7.91667Z" fill="#73481A"/>
<defs>
<linearGradient id="paint0_linear_7913_371806" x1="1.42749" y1="9.99999" x2="18.5725" y2="9.99999" gradientUnits="userSpaceOnUse">
<stop stop-color="#FBCEA5"/>
<stop offset="1" stop-color="#F6B771"/>
</linearGradient>
</defs>
</svg>
