<svg width="20" height="20" viewBox="0 0 20 20" fill="none" xmlns="http://www.w3.org/2000/svg">
<path d="M10 18.5C14.6944 18.5 18.5 14.6944 18.5 10C18.5 5.30558 14.6944 1.5 10 1.5C5.30558 1.5 1.5 5.30558 1.5 10C1.5 14.6944 5.30558 18.5 10 18.5Z" fill="url(#paint0_linear_7913_371804)"/>
<path fill-rule="evenodd" clip-rule="evenodd" d="M11.2593 6.30099C11.2593 6.33701 11.2577 6.37296 11.2546 6.40884C11.2516 6.44473 11.2469 6.48042 11.2408 6.51591C11.2346 6.5514 11.227 6.58656 11.2178 6.62139C11.2087 6.65623 11.198 6.6906 11.1859 6.72452C11.1738 6.75844 11.1603 6.79178 11.1453 6.82454C11.1303 6.8573 11.1139 6.88936 11.0962 6.92071C11.0785 6.95207 11.0595 6.9826 11.0391 7.01232C11.0188 7.04205 10.9972 7.07084 10.9744 7.09871C10.9515 7.12658 10.9276 7.15342 10.9025 7.17923C10.8773 7.20505 10.8512 7.22973 10.8239 7.2533C10.7967 7.27687 10.7685 7.29922 10.7393 7.32037C10.7102 7.34151 10.6802 7.36137 10.6493 7.37994C10.6184 7.39852 10.5868 7.41573 10.5545 7.43159C10.5222 7.44745 10.4892 7.46189 10.4556 7.47493C10.422 7.48796 10.388 7.49953 10.3534 7.50963C10.3188 7.51974 10.2839 7.52835 10.2486 7.53546L11.8889 10.2694L13.3679 9.52994C13.2963 9.42527 13.2418 9.31237 13.2044 9.19124C13.167 9.07011 13.1482 8.94616 13.1482 8.81938C13.1482 8.77813 13.1503 8.73699 13.1543 8.69595C13.1583 8.6549 13.1644 8.61416 13.1724 8.57371C13.1805 8.53326 13.1905 8.4933 13.2025 8.45384C13.2144 8.41437 13.2283 8.37559 13.2441 8.33749C13.2599 8.29938 13.2775 8.26215 13.2969 8.22577C13.3164 8.1894 13.3375 8.15407 13.3605 8.11978C13.3834 8.08549 13.4079 8.0524 13.4341 8.02052C13.4602 7.98864 13.4879 7.95812 13.5171 7.92896C13.5462 7.8998 13.5767 7.87213 13.6086 7.84597C13.6405 7.81981 13.6736 7.79527 13.7079 7.77236C13.7422 7.74944 13.7775 7.72827 13.8139 7.70883C13.8502 7.68938 13.8875 7.67177 13.9256 7.65599C13.9637 7.64021 14.0025 7.62633 14.0419 7.61436C14.0814 7.60239 14.1214 7.59238 14.1618 7.58433C14.2023 7.57629 14.243 7.57024 14.284 7.5662C14.3251 7.56216 14.3662 7.56014 14.4075 7.56014C14.4487 7.56014 14.4899 7.56216 14.5309 7.5662C14.5719 7.57024 14.6127 7.57629 14.6531 7.58433C14.6936 7.59238 14.7335 7.60239 14.773 7.61436C14.8125 7.62633 14.8513 7.64021 14.8894 7.65599C14.9275 7.67177 14.9647 7.68938 15.0011 7.70883C15.0374 7.72827 15.0728 7.74944 15.1071 7.77236C15.1414 7.79527 15.1744 7.81981 15.2063 7.84597C15.2382 7.87213 15.2687 7.8998 15.2979 7.92896C15.3271 7.95812 15.3547 7.98864 15.3809 8.02052C15.407 8.0524 15.4316 8.08549 15.4545 8.11978C15.4774 8.15407 15.4986 8.1894 15.518 8.22577C15.5375 8.26215 15.5551 8.29938 15.5709 8.33749C15.5866 8.37559 15.6005 8.41437 15.6125 8.45384C15.6245 8.4933 15.6345 8.53326 15.6425 8.57371C15.6506 8.61416 15.6566 8.6549 15.6606 8.69595C15.6647 8.73699 15.6667 8.77813 15.6667 8.81938C15.6667 8.86062 15.6647 8.90176 15.6606 8.9428C15.6566 8.98385 15.6506 9.02459 15.6425 9.06504C15.6345 9.10549 15.6245 9.14545 15.6125 9.18491C15.6005 9.22438 15.5866 9.26316 15.5709 9.30126C15.5551 9.33937 15.5375 9.3766 15.518 9.41298C15.4986 9.44935 15.4774 9.48468 15.4545 9.51897C15.4316 9.55326 15.407 9.58635 15.3809 9.61823C15.3547 9.65011 15.3271 9.68063 15.2979 9.70979C15.2687 9.73895 15.2382 9.76662 15.2063 9.79278C15.1744 9.81894 15.1414 9.84348 15.1071 9.86639C15.0728 9.88931 15.0374 9.91048 15.0011 9.92992C14.9647 9.94937 14.9275 9.96698 14.8894 9.98276C14.8513 9.99854 14.8125 10.0124 14.773 10.0244C14.7335 10.0364 14.6936 10.0464 14.6531 10.0544C14.6127 10.0625 14.5719 10.0685 14.5309 10.0726C14.4899 10.0766 14.4487 10.0786 14.4075 10.0786C14.3292 10.0786 14.2517 10.0714 14.1748 10.0569L13.3673 13.6907C13.2393 14.2668 12.7283 14.6768 12.138 14.6768H7.8621C7.27189 14.6768 6.76087 14.2668 6.63284 13.6907L5.82534 10.0569C5.74848 10.0714 5.67094 10.0786 5.59274 10.0786C5.55149 10.0786 5.51035 10.0766 5.46931 10.0726C5.42827 10.0685 5.38752 10.0625 5.34707 10.0544C5.30662 10.0464 5.26666 10.0364 5.2272 10.0244C5.18773 10.0124 5.14895 9.99854 5.11085 9.98276C5.07274 9.96698 5.03551 9.94937 4.99913 9.92992C4.96276 9.91048 4.92743 9.88931 4.89314 9.86639C4.85885 9.84348 4.82576 9.81894 4.79388 9.79278C4.762 9.76662 4.73148 9.73895 4.70232 9.70979C4.67316 9.68063 4.64549 9.65011 4.61933 9.61823C4.59317 9.58635 4.56863 9.55326 4.54572 9.51897C4.5228 9.48468 4.50163 9.44935 4.48219 9.41298C4.46274 9.3766 4.44513 9.33937 4.42935 9.30126C4.41357 9.26316 4.39969 9.22438 4.38772 9.18491C4.37575 9.14545 4.36574 9.10549 4.35769 9.06504C4.34965 9.02459 4.3436 8.98385 4.33956 8.9428C4.33552 8.90176 4.3335 8.86062 4.3335 8.81938C4.3335 8.77813 4.33552 8.73699 4.33956 8.69595C4.3436 8.6549 4.34965 8.61416 4.35769 8.57371C4.36574 8.53326 4.37575 8.4933 4.38772 8.45384C4.39969 8.41437 4.41357 8.37559 4.42935 8.33749C4.44513 8.29938 4.46274 8.26215 4.48219 8.22577C4.50163 8.1894 4.5228 8.15407 4.54572 8.11978C4.56863 8.08549 4.59317 8.0524 4.61933 8.02052C4.64549 7.98864 4.67316 7.95812 4.70232 7.92896C4.73148 7.8998 4.762 7.87213 4.79388 7.84597C4.82576 7.81981 4.85885 7.79527 4.89314 7.77236C4.92743 7.74944 4.96276 7.72827 4.99913 7.70883C5.03551 7.68938 5.07274 7.67177 5.11085 7.65599C5.14895 7.64021 5.18773 7.62633 5.2272 7.61436C5.26666 7.60239 5.30662 7.59238 5.34707 7.58433C5.38752 7.57629 5.42827 7.57024 5.46931 7.5662C5.51035 7.56216 5.55149 7.56014 5.59274 7.56014C5.63398 7.56014 5.67512 7.56216 5.71616 7.5662C5.75721 7.57024 5.79795 7.57629 5.8384 7.58433C5.87885 7.59238 5.91881 7.60239 5.95827 7.61436C5.99774 7.62633 6.03652 7.64021 6.07462 7.65599C6.11273 7.67177 6.14996 7.68938 6.18634 7.70883C6.22271 7.72827 6.25804 7.74944 6.29233 7.77236C6.32662 7.79527 6.35971 7.81981 6.39159 7.84597C6.42347 7.87213 6.45399 7.8998 6.48315 7.92896C6.51231 7.95812 6.53998 7.98864 6.56614 8.02052C6.5923 8.0524 6.61684 8.08549 6.63975 8.11978C6.66267 8.15407 6.68384 8.1894 6.70329 8.22577C6.72273 8.26215 6.74034 8.29938 6.75612 8.33749C6.7719 8.37559 6.78578 8.41437 6.79775 8.45384C6.80972 8.4933 6.81973 8.53326 6.82778 8.57371C6.83582 8.61416 6.84187 8.6549 6.84591 8.69595C6.84995 8.73699 6.85197 8.77813 6.85197 8.81938C6.85197 8.94616 6.83325 9.07012 6.79581 9.19126C6.75837 9.31239 6.70387 9.42529 6.63232 9.52996L8.11121 10.2694L9.75157 7.53547C9.71626 7.52836 9.68132 7.51976 9.64674 7.50965C9.61217 7.49955 9.57809 7.48798 9.54451 7.47495C9.51093 7.46192 9.47797 7.44747 9.44563 7.43161C9.41329 7.41576 9.38169 7.39854 9.35082 7.37997C9.31996 7.3614 9.28995 7.34154 9.26079 7.3204C9.23163 7.29925 9.20343 7.27689 9.17618 7.25333C9.14894 7.22976 9.12276 7.20507 9.09764 7.17926C9.07252 7.15345 9.04854 7.12661 9.02572 7.09874C9.00291 7.07087 8.98132 7.04207 8.96097 7.01235C8.94063 6.98263 8.92159 6.95209 8.90386 6.92073C8.88613 6.88938 8.86978 6.85732 8.8548 6.82456C8.83983 6.7918 8.82628 6.75846 8.81417 6.72454C8.80205 6.69062 8.79141 6.65624 8.78224 6.62141C8.77308 6.58657 8.76542 6.55141 8.75927 6.51592C8.75313 6.48043 8.74851 6.44474 8.74542 6.40885C8.74234 6.37296 8.7408 6.33701 8.7408 6.30099C8.7408 6.25975 8.74282 6.2186 8.74686 6.17756C8.7509 6.13652 8.75695 6.09577 8.76499 6.05532C8.77304 6.01487 8.78305 5.97492 8.79502 5.93545C8.80699 5.89598 8.82087 5.8572 8.83665 5.8191C8.85243 5.781 8.87004 5.74376 8.88948 5.70739C8.90893 5.67101 8.9301 5.63568 8.95301 5.60139C8.97593 5.5671 9.00047 5.53401 9.02663 5.50213C9.05279 5.47025 9.08046 5.43973 9.10962 5.41057C9.13878 5.38141 9.1693 5.35375 9.20118 5.32758C9.23306 5.30142 9.26615 5.27688 9.30044 5.25397C9.33473 5.23106 9.37006 5.20988 9.40643 5.19044C9.4428 5.171 9.48004 5.15338 9.51814 5.1376C9.55625 5.12182 9.59503 5.10794 9.6345 5.09597C9.67396 5.084 9.71392 5.07399 9.75437 5.06594C9.79482 5.0579 9.83556 5.05185 9.87661 5.04781C9.91765 5.04377 9.95879 5.04175 10 5.04175C10.0413 5.04175 10.0824 5.04377 10.1235 5.04781C10.1645 5.05185 10.2053 5.0579 10.2457 5.06594C10.2861 5.07399 10.3261 5.084 10.3656 5.09597C10.405 5.10794 10.4438 5.12182 10.4819 5.1376C10.52 5.15338 10.5573 5.171 10.5936 5.19044C10.63 5.20988 10.6653 5.23106 10.6996 5.25397C10.7339 5.27688 10.767 5.30142 10.7989 5.32758C10.8308 5.35375 10.8613 5.38141 10.8905 5.41057C10.9196 5.43973 10.9473 5.47025 10.9734 5.50213C10.9996 5.53401 11.0241 5.5671 11.0471 5.60139C11.07 5.63568 11.0911 5.67101 11.1106 5.70739C11.13 5.74376 11.1476 5.78099 11.1634 5.8191C11.1792 5.8572 11.1931 5.89598 11.2051 5.93545C11.217 5.97492 11.227 6.01487 11.2351 6.05532C11.2431 6.09577 11.2492 6.13652 11.2532 6.17756C11.2573 6.2186 11.2593 6.25975 11.2593 6.30099ZM9.25987 12.9863L10 12.6841L10.7402 12.9863L10.6815 12.1889L11.1976 11.5784L10.4212 11.3878L10 10.7083L9.57886 11.3878L8.80243 11.5784L9.31856 12.1889L9.25987 12.9863Z" fill="white"/>
<defs>
<linearGradient id="paint0_linear_7913_371804" x1="1.5" y1="1.5" x2="18.4394" y2="18.113" gradientUnits="userSpaceOnUse">
<stop stop-color="#FF7259"/>
<stop offset="1" stop-color="#FF2C55"/>
</linearGradient>
</defs>
</svg>
